<svg xmlns="http://www.w3.org/2000/svg" width="43" height="43" viewBox="0 0 43 43">
  <g id="Сгруппировать_11492" data-name="Сгруппировать 11492" transform="translate(-0.142)">
    <circle id="Эллипс_385" data-name="Эллипс 385" cx="21.5" cy="21.5" r="21.5" transform="translate(0.142)" fill="#0098ff"/>
    <path id="Контур_26416" data-name="Контур 26416" d="M4648.431-11403.969c2.313-1.275,4.9-2.338,7.308-3.406,4.15-1.752,8.319-3.473,12.527-5.073.82-.273,2.29-.541,2.434.673-.079,1.718-.4,3.428-.626,5.135-.564,3.756-1.219,7.5-1.857,11.241a1.772,1.772,0,0,1-2.781,1.1c-2.4-1.625-4.822-3.231-7.193-4.894-.776-.787-.056-1.922.637-2.483,1.979-1.951,4.077-3.607,5.952-5.656.505-1.223-.989-.191-1.482.121-2.709,1.869-5.35,3.85-8.206,5.487-1.459.8-3.158.119-4.616-.331-1.308-.541-3.223-1.084-2.1-1.911Z" transform="translate(-4640.859 11426.297)" fill="#f6f6f6"/>
  </g>
</svg>
