<svg xmlns="http://www.w3.org/2000/svg" width="18" height="18" viewBox="0 0 18 18">
  <path id="gear" d="M111.789,209.98h-2.32a.675.675,0,0,1-.442-.537c-.137-.592-.292-1.18-.43-1.771a.272.272,0,0,0-.194-.216c-.288-.112-.574-.231-.855-.36a.253.253,0,0,0-.272.018c-.433.267-.871.527-1.307.787a.57.57,0,0,1-.817-.1q-.665-.663-1.328-1.328a.57.57,0,0,1-.1-.83c.264-.439.532-.879.791-1.326a.285.285,0,0,0,.012-.22c-.117-.3-.254-.6-.373-.907a.247.247,0,0,0-.193-.173c-.6-.142-1.191-.3-1.789-.435a.675.675,0,0,1-.537-.442v-2.318a.676.676,0,0,1,.538-.443c.592-.137,1.181-.292,1.773-.433a.254.254,0,0,0,.207-.179c.091-.252.192-.5.3-.747a.24.24,0,0,0-.015-.257c-.3-.495-.6-.992-.9-1.49a.575.575,0,0,1,.1-.832l1.318-1.318a.573.573,0,0,1,.844-.1c.472.283.946.563,1.414.852a.267.267,0,0,0,.29.012c.3-.137.6-.264.9-.384a.261.261,0,0,0,.183-.2c.144-.609.3-1.216.448-1.823a.557.557,0,0,1,.621-.493H111.6a.551.551,0,0,1,.615.479c.152.607.3,1.214.448,1.823a.271.271,0,0,0,.189.22c.284.108.564.227.84.352a.257.257,0,0,0,.274-.016c.459-.282.923-.557,1.385-.832a.555.555,0,0,1,.8.1q.672.67,1.342,1.342a.562.562,0,0,1,.1.816c-.273.457-.544.916-.824,1.369a.269.269,0,0,0-.012.29q.189.415.352.84a.26.26,0,0,0,.207.181c.615.146,1.227.3,1.84.452a.549.549,0,0,1,.474.6q0,.976,0,1.951a.556.556,0,0,1-.483.615c-.615.153-1.226.308-1.84.453a.244.244,0,0,0-.194.171q-.163.425-.352.841a.239.239,0,0,0,.012.257c.279.454.551.911.824,1.369a.556.556,0,0,1-.1.8q-.668.674-1.341,1.345a.571.571,0,0,1-.818.1c-.453-.27-.9-.545-1.358-.809a.285.285,0,0,0-.22-.014c-.315.123-.628.256-.935.4a.313.313,0,0,0-.155.178c-.155.594-.3,1.19-.442,1.789A.671.671,0,0,1,111.789,209.98Zm2.531-9.006a3.691,3.691,0,1,0-3.685,3.7,3.7,3.7,0,0,0,3.685-3.7Z" transform="translate(-101.63 -191.98)" fill="#9299a2"/>
</svg>
