<svg xmlns="http://www.w3.org/2000/svg" width="16" height="15.998" viewBox="0 0 16 15.998">
  <path id="Контур_26792" data-name="Контур 26792" d="M1672.085,11532.9a8,8,0,1,0,8,8A8,8,0,0,0,1672.085,11532.9Zm.943,8,2.2,2.2a.667.667,0,1,1-.943.943l-2.2-2.2-2.2,2.2a.667.667,0,0,1-.942-.943l2.2-2.2-2.2-2.2a.666.666,0,0,1,.942-.941c.1.1,2.2,2.2,2.2,2.2l2.2-2.2a.666.666,0,0,1,.943.941C1675.121,11538.8,1673.028,11540.9,1673.028,11540.9Z" transform="translate(-1664.085 -11532.898)" fill="#b7c0c8"/>
</svg>
