<svg xmlns="http://www.w3.org/2000/svg" width="1281.51" height="1630.92" viewBox="0 0 1281.51 1630.92">
  <g id="Сгруппировать_12614" data-name="Сгруппировать 12614" transform="translate(0)">
    <path id="Контур_22378" data-name="Контур 22378" d="M-1773.321,646.2c-50.844,0-111.559,20.85-148.717,76.173-6.956,10.346-1.848,24.488,9.925,28.562,41.953,14.518,83.512,30.3,124.232,47.205a37.814,37.814,0,0,0,29.1-.013c40.739-16.893,82.292-32.69,124.231-47.192,11.759-4.074,16.861-18.215,9.9-28.562-37.171-55.348-97.873-76.173-148.676-76.173" transform="translate(2414.087 -646.203)" fill="#fbfbfb"/>
    <path id="Контур_22379" data-name="Контур 22379" d="M-1815.8,656.943a72.518,72.518,0,0,0-21.037-3.138,72.367,72.367,0,0,0-34.723,8.922,69.009,69.009,0,0,0-33.742,41.631c-12.793,44.242-23.484,89.4-32,135.057-3.075,16.511,15.007,28.954,29.14,19.838q34.176-22.038,68.339-42.275c49.763-29.517,100.7-57.105,152.238-82.524,15.087-7.435,14.28-29.282-1.48-35.093q-46.032-17-92.77-31.887h.027q-16.948-5.4-34-10.532" transform="translate(2214.051 -524.111)" fill="#fbfbfb"/>
    <path id="Контур_22380" data-name="Контур 22380" d="M-1724.419,658.332c-15.707-6.041-33.209-5.7-49.31-.854q-15.768,4.755-31.421,9.761-46.642,14.86-92.737,31.905c-15.781,5.8-16.581,27.653-1.5,35.071,51.564,25.42,102.468,53.027,152.245,82.522q34.106,20.192,68.346,42.28c14.113,9.093,32.215-3.343,29.127-19.844-8.5-45.653-19.2-90.813-31.988-135.035-6.043-20.9-21.477-37.638-42.76-45.806" transform="translate(2654.421 -523.873)" fill="#fbfbfb"/>
    <path id="Контур_22381" data-name="Контур 22381" d="M-1588.1,662.8a38.666,38.666,0,0,0-31.622,0,2177.944,2177.944,0,0,0-220.817,114.454c-28.827,17.066-57.814,35.222-86.7,54.309-13.373,8.824-10.392,29.292,4.909,34.109,18.2,5.711,36.944,11.887,56.406,18.559a1867.839,1867.839,0,0,1,244.681,104.037,37.757,37.757,0,0,0,34.65,0,1867.048,1867.048,0,0,1,244.681-104.037c19.469-6.672,38.231-12.848,56.427-18.559,15.287-4.817,18.268-25.273,4.9-34.089q-43.35-28.661-86.707-54.329A2179.186,2179.186,0,0,0-1588.1,662.8" transform="translate(2244.668 -433.929)" fill="#fbfbfb"/>
    <path id="Контур_22382" data-name="Контур 22382" d="M-1804.8,1010.816c4.609,1.549,9.184,3.138,13.767,4.71a38.283,38.283,0,0,0,37.4-6.933c17.955-15.231,36.75-30.571,56.179-45.807A1893.264,1893.264,0,0,1-1508.7,832.037c13.066-7.915,12.412-27.2-1.381-33.732a1822.477,1822.477,0,0,0-187.255-76.194c-49.59-17.06-94.4-30.711-137.018-41.629l-23.411-5.546a71.23,71.23,0,0,0-59.748,12.608,71.222,71.222,0,0,0-28.393,54.239l-.86,25.956c-.327,9.871-.66,19.729-.66,29.681a1431.285,1431.285,0,0,0,7.977,149.025,38.38,38.38,0,0,0,28.86,32.912c35.61,9.164,71.027,19.721,105.79,31.461" transform="translate(2056.977 -216.323)" fill="#fbfbfb"/>
    <path id="Контур_22383" data-name="Контур 22383" d="M-1493.209,687.544a71.017,71.017,0,0,0-59.755-12.586l-23.4,5.524c-42.433,10.922-87.261,24.5-137.024,41.633a1823.352,1823.352,0,0,0-187.268,76.2c-13.78,6.531-14.433,25.809-1.36,33.707a1899.8,1899.8,0,0,1,188.749,130.755c19.416,15.24,38.2,30.573,56.206,45.808a38.192,38.192,0,0,0,37.378,6.947q6.873-2.381,13.76-4.709c34.743-11.755,70.173-22.282,105.8-31.456a38.41,38.41,0,0,0,28.86-32.915,1426.875,1426.875,0,0,0,7.977-149.028c0-9.83-.32-19.566-.667-29.29l-.84-26.357a71.191,71.191,0,0,0-28.42-54.227" transform="translate(2635.243 -216.326)" fill="#fbfbfb"/>
    <path id="Контур_22384" data-name="Контур 22384" d="M-1638.616,688.477a38.484,38.484,0,0,0-38,0,1822.223,1822.223,0,0,0-226,151.925q-11.465,9.034-22.637,18.068A19.19,19.19,0,0,0-1920.835,891q16.028,7.066,31.661,14.455a1499.039,1499.039,0,0,1,209.852,120.518,38.108,38.108,0,0,0,43.4,0A1499.447,1499.447,0,0,1-1426.09,905.457q15.627-7.353,31.675-14.455a19.191,19.191,0,0,0,4.429-32.532q-11.165-9.034-22.664-18.068a1821.348,1821.348,0,0,0-225.966-151.925" transform="translate(2298.387 -47.857)" fill="#fbfbfb"/>
    <path id="Контур_22385" data-name="Контур 22385" d="M-1720.465,736.256A1432.5,1432.5,0,0,0-1866.16,695.4a77.8,77.8,0,0,0-16.835-1.874c-18.762,0-36.044,7.265-49.636,20.846a71.277,71.277,0,0,0-19.523,66.059,1429.474,1429.474,0,0,0,64.5,211.212,1434.122,1434.122,0,0,0,156.107,292.834c7.764,11.207,24.425,10.645,31.855-.784q15.317-23.544,31.4-46.392c26.152-37.141,54.059-73.224,82.952-107.279,30.434-35.825,62.736-70.442,95.985-102.893,33.976-33.184,69.613-64.809,106.4-94.516a19.155,19.155,0,0,0-1.12-30.835,1439.384,1439.384,0,0,0-185.547-104.9c-32.715-15.426-66.958-29.926-101.728-43.15-16.214-6.139-32.6-11.892-49.116-17.468" transform="translate(1953.847 113.781)" fill="#fbfbfb"/>
    <path id="Контур_22386" data-name="Контур 22386" d="M-1351.132,914.765c-29.247-34.45-60.275-67.7-92.243-98.885a1445.1,1445.1,0,0,0-111.713-98.388,38.012,38.012,0,0,0-47.176,0,1450.071,1450.071,0,0,0-111.706,98.388c-31.968,31.186-62.99,64.435-92.243,98.885-27.773,32.69-54.592,67.372-79.724,103.08-16.835,23.89-33.089,48.541-48.5,73.549a19.332,19.332,0,0,0,2.441,23.476c91.783,94.913,219.643,149.03,353.306,149.03s261.523-54.117,353.339-149.03a19.375,19.375,0,0,0,2.448-23.493c-15.427-25.012-31.662-49.643-48.51-73.533-25.152-35.708-51.965-70.39-79.724-103.08" transform="translate(2219.428 367.019)" fill="#fbfbfb"/>
    <path id="Контур_22387" data-name="Контур 22387" d="M-1567.867,736.256a1431.157,1431.157,0,0,1,145.7-40.861,77.613,77.613,0,0,1,16.815-1.874c18.789,0,36.057,7.265,49.657,20.846a71.239,71.239,0,0,1,19.516,66.059,1431.779,1431.779,0,0,1-64.484,211.212,1434.774,1434.774,0,0,1-156.107,292.834c-7.77,11.207-24.438,10.645-31.868-.784q-15.257-23.544-31.4-46.392c-26.132-37.141-54.045-73.224-82.959-107.279-30.414-35.825-62.736-70.442-95.978-102.893-33.989-33.184-69.6-64.809-106.41-94.516-10.038-8.119-9.6-23.648,1.147-30.835a1438.247,1438.247,0,0,1,185.527-104.9c32.709-15.426,66.952-29.926,101.748-43.15,16.208-6.139,32.6-11.892,49.1-17.468" transform="translate(2615.992 113.781)" fill="#fbfbfb"/>
  </g>
</svg>
