<svg xmlns="http://www.w3.org/2000/svg" width="163.062" height="40" viewBox="0 0 163.062 40">
  <g id="Сгруппировать_11467" data-name="Сгруппировать 11467" transform="translate(1953.846 -646.203)">
    <g id="Сгруппировать_5776" data-name="Сгруппировать 5776" transform="translate(-1913.872 655.147)">
      <path id="Контур_22370" data-name="Контур 22370" d="M-1854.973,695.685a6.241,6.241,0,0,1-2.481-2.58,8.078,8.078,0,0,1-.86-3.792,8.193,8.193,0,0,1,.846-3.793,6.191,6.191,0,0,1,2.354-2.552,6.549,6.549,0,0,1,3.426-.9,5.875,5.875,0,0,1,1.3.169,6.748,6.748,0,0,0,.959.113,2.155,2.155,0,0,0,.7-.127,1.877,1.877,0,0,1,.536-.127.625.625,0,0,1,.409.127,1.315,1.315,0,0,1,.3.381l1.466,3.3a.943.943,0,0,1,.084.367.619.619,0,0,1-.4.621l-.141.085a1.3,1.3,0,0,1-.395.112.777.777,0,0,1-.649-.338,12.907,12.907,0,0,0-2.171-2.058,3.454,3.454,0,0,0-2-.621,3.156,3.156,0,0,0-2.4,1.057,4.107,4.107,0,0,0-.987,2.919,6.524,6.524,0,0,0,.648,2.96,4.817,4.817,0,0,0,1.791,2,4.862,4.862,0,0,0,2.609.705,4,4,0,0,0,2.819-.959,1.274,1.274,0,0,1,.818-.423.569.569,0,0,1,.366.113.666.666,0,0,1,.338.62,1.613,1.613,0,0,1-.2.705,4.706,4.706,0,0,1-2.044,2.086,6.631,6.631,0,0,1-3.229.762,7.547,7.547,0,0,1-3.821-.931" transform="translate(1858.315 -676.003)" fill="#9299a2"/>
      <path id="Контур_22371" data-name="Контур 22371" d="M-1821.99,695.607a6.533,6.533,0,0,1-2.51-2.594,7.8,7.8,0,0,1-.9-3.779,7.8,7.8,0,0,1,.9-3.779,6.539,6.539,0,0,1,2.51-2.594,7.126,7.126,0,0,1,3.637-.931,7.123,7.123,0,0,1,3.637.931,6.638,6.638,0,0,1,2.524,2.594,7.706,7.706,0,0,1,.916,3.779,7.7,7.7,0,0,1-.916,3.779,6.632,6.632,0,0,1-2.524,2.594,7.127,7.127,0,0,1-3.637.931,7.13,7.13,0,0,1-3.637-.931m6.556-2.509a4.186,4.186,0,0,0,.888-2.848,7.719,7.719,0,0,0-.55-2.932,5.22,5.22,0,0,0-1.551-2.157,3.532,3.532,0,0,0-2.27-.8,2.943,2.943,0,0,0-2.326,1.015,4.187,4.187,0,0,0-.888,2.848,7.716,7.716,0,0,0,.55,2.933,5.212,5.212,0,0,0,1.551,2.157,3.529,3.529,0,0,0,2.27.8,2.943,2.943,0,0,0,2.327-1.015" transform="translate(1839.174 -675.925)" fill="#9299a2"/>
      <path id="Контур_22372" data-name="Контур 22372" d="M-1787.7,696.228a.623.623,0,0,1-.7-.705v-.451a.715.715,0,0,1,.592-.733l.508-.169a1.009,1.009,0,0,0,.592-.353,1.246,1.246,0,0,0,.169-.718v-6.683a1.5,1.5,0,0,0-.254-.959,1.918,1.918,0,0,0-.987-.508.948.948,0,0,1-.479-.24.67.67,0,0,1-.141-.465v-.395a.742.742,0,0,1,.592-.733l3.215-1.072a1.779,1.779,0,0,1,.507-.085q.677,0,.677.846v.508a.269.269,0,0,0,.141.267.3.3,0,0,0,.31-.042l.508-.282a8.009,8.009,0,0,1,4.23-1.325,3.415,3.415,0,0,1,2.707,1.057,4.4,4.4,0,0,1,.93,3V693.1a1.246,1.246,0,0,0,.169.718,1.008,1.008,0,0,0,.592.353l.508.169a.715.715,0,0,1,.592.733v.451a.68.68,0,0,1-.2.522.72.72,0,0,1-.508.183h-3.778a.717.717,0,0,1-.507-.183.678.678,0,0,1-.2-.522v-8.967a2.964,2.964,0,0,0-.339-1.607,1.317,1.317,0,0,0-1.184-.508,6.154,6.154,0,0,0-1.72.253,7.17,7.17,0,0,0-1.523.621,1.275,1.275,0,0,0-.465.409,1.124,1.124,0,0,0-.127.578v6.8a1.249,1.249,0,0,0,.169.718,1.011,1.011,0,0,0,.592.353l.508.169a.715.715,0,0,1,.592.733v.451a.623.623,0,0,1-.7.705Z" transform="translate(1817.659 -675.925)" fill="#9299a2"/>
      <path id="Контур_22373" data-name="Контур 22373" d="M-1745.364,695.607a6.533,6.533,0,0,1-2.51-2.594,7.8,7.8,0,0,1-.9-3.779,7.8,7.8,0,0,1,.9-3.779,6.539,6.539,0,0,1,2.51-2.594,7.125,7.125,0,0,1,3.637-.931,7.125,7.125,0,0,1,3.638.931,6.638,6.638,0,0,1,2.524,2.594,7.708,7.708,0,0,1,.916,3.779,7.706,7.706,0,0,1-.916,3.779,6.632,6.632,0,0,1-2.524,2.594,7.13,7.13,0,0,1-3.638.931,7.129,7.129,0,0,1-3.637-.931m6.556-2.509a4.185,4.185,0,0,0,.888-2.848,7.719,7.719,0,0,0-.55-2.932,5.222,5.222,0,0,0-1.551-2.157,3.534,3.534,0,0,0-2.27-.8,2.943,2.943,0,0,0-2.327,1.015,4.187,4.187,0,0,0-.888,2.848,7.723,7.723,0,0,0,.55,2.933,5.212,5.212,0,0,0,1.551,2.157,3.529,3.529,0,0,0,2.27.8,2.943,2.943,0,0,0,2.327-1.015" transform="translate(1794.611 -675.925)" fill="#9299a2"/>
      <path id="Контур_22374" data-name="Контур 22374" d="M-1711.076,696.228a.623.623,0,0,1-.705-.705v-.451a.715.715,0,0,1,.592-.733l.508-.169a1.01,1.01,0,0,0,.592-.353,1.248,1.248,0,0,0,.169-.718v-6.683a1.5,1.5,0,0,0-.253-.959,1.922,1.922,0,0,0-.987-.508.949.949,0,0,1-.48-.24.67.67,0,0,1-.141-.465v-.395a.742.742,0,0,1,.592-.733l3.215-1.072a1.513,1.513,0,0,1,.479-.085.653.653,0,0,1,.521.212.947.947,0,0,1,.183.635v.508a.269.269,0,0,0,.141.267.3.3,0,0,0,.31-.042l.508-.282a7.6,7.6,0,0,1,3.919-1.325,3.776,3.776,0,0,1,1.734.38,3.763,3.763,0,0,1,1.311,1.142q.2.282.4.282a.257.257,0,0,0,.127-.042c.047-.028.089-.051.127-.07l.508-.338a7.37,7.37,0,0,1,4.06-1.353,3.31,3.31,0,0,1,2.609,1.029,4.248,4.248,0,0,1,.916,2.919V693.1a1.248,1.248,0,0,0,.169.718,1.031,1.031,0,0,0,.62.353l.479.169a.716.716,0,0,1,.593.733v.451a.709.709,0,0,1-.183.522.67.67,0,0,1-.494.183h-3.778a.623.623,0,0,1-.7-.705v-9.136a2.555,2.555,0,0,0-.339-1.466,1.252,1.252,0,0,0-1.1-.479,6.159,6.159,0,0,0-2.961.874,1.256,1.256,0,0,0-.437.423,1.138,1.138,0,0,0-.127.564v6.8a1.249,1.249,0,0,0,.169.718,1.011,1.011,0,0,0,.593.353l.507.169a.715.715,0,0,1,.592.733v.451a.623.623,0,0,1-.7.705h-3.778a.717.717,0,0,1-.508-.183.677.677,0,0,1-.2-.522v-9.136a2.637,2.637,0,0,0-.324-1.48,1.261,1.261,0,0,0-1.113-.465,4.762,4.762,0,0,0-1.481.253,7.884,7.884,0,0,0-1.424.621,1.275,1.275,0,0,0-.465.409,1.124,1.124,0,0,0-.127.578v6.8a1.248,1.248,0,0,0,.169.718,1.01,1.01,0,0,0,.592.353l.507.169a.715.715,0,0,1,.593.733v.451a.623.623,0,0,1-.7.705Z" transform="translate(1773.096 -675.925)" fill="#9299a2"/>
      <path id="Контур_22375" data-name="Контур 22375" d="M-1651.019,687.879a.623.623,0,0,1-.705-.7v-.451a.715.715,0,0,1,.592-.733l.508-.169a1.009,1.009,0,0,0,.592-.352,1.251,1.251,0,0,0,.17-.719v-6.627a1.5,1.5,0,0,0-.254-.959,1.919,1.919,0,0,0-.987-.508.947.947,0,0,1-.479-.24.667.667,0,0,1-.141-.465v-.395a.743.743,0,0,1,.592-.733l3.355-1.128a2,2,0,0,1,.508-.085q.677,0,.677.846V684.75a1.249,1.249,0,0,0,.169.719,1.008,1.008,0,0,0,.592.352l.508.169a.715.715,0,0,1,.592.733v.451a.623.623,0,0,1-.705.7Zm.846-16.82a1.861,1.861,0,0,1-.649-1.452,1.852,1.852,0,0,1,.649-1.467,2.444,2.444,0,0,1,1.664-.564,2.433,2.433,0,0,1,1.678.564,1.872,1.872,0,0,1,.634,1.467,1.869,1.869,0,0,1-.634,1.466,2.429,2.429,0,0,1-1.678.564,2.4,2.4,0,0,1-1.664-.578" transform="translate(1738.169 -667.577)" fill="#9299a2"/>
      <path id="Контур_22376" data-name="Контур 22376" d="M-1629.2,695.685a6.242,6.242,0,0,1-2.481-2.58,8.078,8.078,0,0,1-.86-3.792,8.2,8.2,0,0,1,.846-3.793,6.192,6.192,0,0,1,2.355-2.552,6.549,6.549,0,0,1,3.426-.9,5.876,5.876,0,0,1,1.3.169,6.746,6.746,0,0,0,.959.113,2.155,2.155,0,0,0,.7-.127,1.88,1.88,0,0,1,.536-.127.625.625,0,0,1,.409.127,1.309,1.309,0,0,1,.3.381l1.466,3.3a.937.937,0,0,1,.084.367.619.619,0,0,1-.395.621l-.141.085a1.294,1.294,0,0,1-.395.112.777.777,0,0,1-.648-.338,12.893,12.893,0,0,0-2.171-2.058,3.454,3.454,0,0,0-2-.621,3.156,3.156,0,0,0-2.4,1.057,4.108,4.108,0,0,0-.987,2.919,6.524,6.524,0,0,0,.649,2.96,4.816,4.816,0,0,0,1.791,2,4.861,4.861,0,0,0,2.609.705,4,4,0,0,0,2.819-.959,1.274,1.274,0,0,1,.818-.423.57.57,0,0,1,.367.113.666.666,0,0,1,.339.62,1.618,1.618,0,0,1-.2.705,4.709,4.709,0,0,1-2.045,2.086,6.631,6.631,0,0,1-3.229.762,7.546,7.546,0,0,1-3.821-.931" transform="translate(1727.012 -676.003)" fill="#9299a2"/>
      <path id="Контур_22377" data-name="Контур 22377" d="M-1597.646,695.466a3.848,3.848,0,0,1-1.212-3.045,3.909,3.909,0,0,1,1.635-3.342,8.054,8.054,0,0,1,4.794-1.2q.225,0,1.748.085h.084a.249.249,0,0,0,.282-.282v-1.269q0-2.622-2.34-2.622a2.707,2.707,0,0,0-1.636.536,6.778,6.778,0,0,0-1.523,1.72,1.75,1.75,0,0,1-.395.423.8.8,0,0,1-.451.113.626.626,0,0,1-.437-.141,1.377,1.377,0,0,1-.3-.451l-.846-1.861a1,1,0,0,1-.113-.451.789.789,0,0,1,.48-.649,9.188,9.188,0,0,1,2.34-.79,13.64,13.64,0,0,1,2.876-.31,5.732,5.732,0,0,1,4.229,1.325,5.656,5.656,0,0,1,1.353,3.976l.085,6.232a.937.937,0,0,0,.155.606.574.574,0,0,0,.465.183.744.744,0,0,0,.423-.113,2.741,2.741,0,0,0,.4-.338.836.836,0,0,1,.592-.367.566.566,0,0,1,.451.2.753.753,0,0,1,.169.508,2.1,2.1,0,0,1-.775,1.692,2.952,2.952,0,0,1-1.96.649,2.822,2.822,0,0,1-1.565-.395,3.727,3.727,0,0,1-1.114-1.241.271.271,0,0,0-.254-.169.462.462,0,0,0-.282.169,4.951,4.951,0,0,1-1.748,1.255,5.511,5.511,0,0,1-2.2.437,4.981,4.981,0,0,1-3.412-1.072m6.965-2.368a1.235,1.235,0,0,0,.31-.48,1.974,1.974,0,0,0,.084-.621v-1.833a.353.353,0,0,0-.366-.395,6.313,6.313,0,0,0-1.523-.141q-3.3,0-3.3,2.4a2.039,2.039,0,0,0,.606,1.593,2.449,2.449,0,0,0,1.706.55,3.287,3.287,0,0,0,2.481-1.072" transform="translate(1707.424 -675.925)" fill="#9299a2"/>
    </g>
    <g id="Сгруппировать_5777" data-name="Сгруппировать 5777" transform="translate(-1953.846 646.203)">
      <path id="Контур_22378" data-name="Контур 22378" d="M-1921.466,646.2a4.357,4.357,0,0,0-3.647,1.868.469.469,0,0,0,.243.7c1.029.356,2.048.743,3.047,1.158a.927.927,0,0,0,.713,0c1-.414,2.019-.8,3.047-1.157a.469.469,0,0,0,.243-.7,4.355,4.355,0,0,0-3.646-1.868" transform="translate(1937.181 -646.203)" fill="#22a873"/>
      <path id="Контур_22379" data-name="Контур 22379" d="M-1934.657,653.882a1.779,1.779,0,0,0-.516-.077,1.775,1.775,0,0,0-.851.219,1.693,1.693,0,0,0-.828,1.021c-.313,1.085-.576,2.193-.785,3.312a.471.471,0,0,0,.715.487q.838-.54,1.676-1.037c1.221-.724,2.47-1.4,3.734-2.024a.469.469,0,0,0-.036-.861q-1.129-.417-2.275-.782h0q-.415-.132-.834-.258" transform="translate(1944.424 -650.624)" fill="#22a873"/>
      <path id="Контур_22380" data-name="Контур 22380" d="M-1905.669,653.93a1.875,1.875,0,0,0-1.209-.021q-.387.117-.771.239-1.144.365-2.274.782a.468.468,0,0,0-.037.86c1.264.623,2.513,1.3,3.734,2.024q.836.5,1.676,1.037a.471.471,0,0,0,.714-.487c-.208-1.12-.471-2.227-.784-3.312a1.71,1.71,0,0,0-1.049-1.124" transform="translate(1928.479 -650.633)" fill="#22a873"/>
      <path id="Контур_22381" data-name="Контур 22381" d="M-1927.212,659.5a.949.949,0,0,0-.776,0,53.455,53.455,0,0,0-5.416,2.807c-.707.418-1.418.864-2.126,1.332a.468.468,0,0,0,.12.837c.447.14.906.292,1.383.455a45.81,45.81,0,0,1,6,2.552.926.926,0,0,0,.85,0,45.806,45.806,0,0,1,6-2.552q.716-.245,1.384-.455a.468.468,0,0,0,.12-.836c-.709-.469-1.42-.914-2.127-1.332a53.436,53.436,0,0,0-5.415-2.807" transform="translate(1943.316 -653.89)" fill="#22a873"/>
      <path id="Контур_22382" data-name="Контур 22382" d="M-1943.927,681.255l.338.115a.939.939,0,0,0,.917-.17c.441-.374.9-.75,1.378-1.124a46.452,46.452,0,0,1,4.63-3.207.47.47,0,0,0-.034-.827,44.712,44.712,0,0,0-4.593-1.869c-1.216-.418-2.315-.753-3.36-1.021l-.574-.136a1.747,1.747,0,0,0-1.465.309,1.748,1.748,0,0,0-.7,1.33l-.021.637c-.008.242-.016.484-.016.728a35.082,35.082,0,0,0,.2,3.655.941.941,0,0,0,.708.807c.874.225,1.742.484,2.595.772" transform="translate(1950.112 -661.769)" fill="#22a873"/>
      <path id="Контур_22383" data-name="Контур 22383" d="M-1901.163,673.326a1.742,1.742,0,0,0-1.466-.309l-.574.136c-1.041.268-2.14.6-3.361,1.021a44.726,44.726,0,0,0-4.593,1.869.47.47,0,0,0-.033.827,46.622,46.622,0,0,1,4.629,3.207c.476.374.937.75,1.378,1.123a.937.937,0,0,0,.917.17l.338-.115c.852-.288,1.721-.547,2.595-.772a.942.942,0,0,0,.708-.807,35.064,35.064,0,0,0,.2-3.655c0-.241-.008-.48-.016-.718l-.021-.647a1.746,1.746,0,0,0-.7-1.33" transform="translate(1929.173 -661.769)" fill="#22a873"/>
      <path id="Контур_22384" data-name="Контур 22384" d="M-1925.189,683.581a.944.944,0,0,0-.932,0,44.7,44.7,0,0,0-5.543,3.726q-.281.222-.555.443a.471.471,0,0,0,.108.8c.262.116.521.234.777.354a36.77,36.77,0,0,1,5.147,2.956.935.935,0,0,0,1.065,0,36.773,36.773,0,0,1,5.146-2.956c.256-.12.515-.239.777-.354a.471.471,0,0,0,.108-.8q-.274-.222-.556-.443a44.679,44.679,0,0,0-5.542-3.726" transform="translate(1941.371 -667.869)" fill="#22a873"/>
      <path id="Контур_22385" data-name="Контур 22385" d="M-1948.122,694.57a35.128,35.128,0,0,0-3.573-1,1.907,1.907,0,0,0-.412-.046,1.7,1.7,0,0,0-1.218.511,1.748,1.748,0,0,0-.479,1.62,35.049,35.049,0,0,0,1.582,5.18,35.17,35.17,0,0,0,3.829,7.182.471.471,0,0,0,.781-.019q.375-.577.77-1.138c.641-.911,1.326-1.8,2.034-2.631.746-.879,1.539-1.728,2.354-2.524.833-.814,1.707-1.59,2.61-2.318a.47.47,0,0,0-.028-.756,35.282,35.282,0,0,0-4.551-2.573c-.8-.378-1.642-.734-2.495-1.058-.4-.151-.8-.292-1.2-.428" transform="translate(1953.846 -673.722)" fill="#22a873"/>
      <path id="Контур_22386" data-name="Контур 22386" d="M-1922.934,714.329c-.717-.845-1.478-1.66-2.262-2.425a35.566,35.566,0,0,0-2.74-2.413.933.933,0,0,0-1.157,0,35.582,35.582,0,0,0-2.74,2.413c-.784.765-1.545,1.58-2.262,2.425-.681.8-1.339,1.652-1.955,2.528-.412.586-.811,1.19-1.189,1.8a.474.474,0,0,0,.06.576,12.066,12.066,0,0,0,8.665,3.655,12.069,12.069,0,0,0,8.666-3.655.474.474,0,0,0,.06-.576c-.378-.614-.776-1.218-1.19-1.8-.617-.876-1.275-1.726-1.955-2.528" transform="translate(1944.23 -682.892)" fill="#22a873"/>
      <path id="Контур_22387" data-name="Контур 22387" d="M-1904.164,694.57a35.126,35.126,0,0,1,3.573-1,1.91,1.91,0,0,1,.413-.046,1.7,1.7,0,0,1,1.218.511,1.746,1.746,0,0,1,.479,1.62,35.064,35.064,0,0,1-1.582,5.18,35.158,35.158,0,0,1-3.829,7.182.471.471,0,0,1-.781-.019q-.375-.577-.77-1.138c-.641-.911-1.326-1.8-2.035-2.631-.746-.879-1.539-1.728-2.354-2.524-.834-.814-1.707-1.59-2.61-2.318a.47.47,0,0,1,.028-.756,35.263,35.263,0,0,1,4.551-2.573c.8-.378,1.642-.734,2.5-1.058.4-.151.8-.292,1.2-.428" transform="translate(1929.87 -673.722)" fill="#22a873"/>
    </g>
  </g>
</svg>
