<svg xmlns="http://www.w3.org/2000/svg" width="175.391" height="43.024" viewBox="0 0 175.391 43.024">
  <g id="Сгруппировать_11585" data-name="Сгруппировать 11585" transform="translate(-764.001 -213.884)">
    <g id="Сгруппировать_5779" data-name="Сгруппировать 5779" transform="translate(764.001 213.884)">
      <g id="Сгруппировать_5776" data-name="Сгруппировать 5776" transform="translate(42.996 9.62)">
        <path id="Контур_22370" data-name="Контур 22370" d="M-1854.721,696.714a6.715,6.715,0,0,1-2.669-2.775,8.691,8.691,0,0,1-.925-4.079,8.815,8.815,0,0,1,.91-4.08,6.66,6.66,0,0,1,2.532-2.745,7.045,7.045,0,0,1,3.685-.97,6.321,6.321,0,0,1,1.4.182,7.258,7.258,0,0,0,1.031.122,2.316,2.316,0,0,0,.758-.137,2.02,2.02,0,0,1,.577-.136.672.672,0,0,1,.44.136,1.409,1.409,0,0,1,.318.41l1.577,3.548a1.016,1.016,0,0,1,.091.394.666.666,0,0,1-.425.667l-.151.091a1.392,1.392,0,0,1-.425.121.835.835,0,0,1-.7-.364,13.883,13.883,0,0,0-2.335-2.214,3.715,3.715,0,0,0-2.153-.667,3.394,3.394,0,0,0-2.578,1.137,4.416,4.416,0,0,0-1.062,3.139,7.017,7.017,0,0,0,.7,3.184,5.181,5.181,0,0,0,1.926,2.154,5.23,5.23,0,0,0,2.806.758,4.306,4.306,0,0,0,3.032-1.031,1.371,1.371,0,0,1,.88-.455.613.613,0,0,1,.394.122.716.716,0,0,1,.364.667,1.732,1.732,0,0,1-.212.758,5.062,5.062,0,0,1-2.2,2.244,7.133,7.133,0,0,1-3.473.819,8.117,8.117,0,0,1-4.11-1" transform="translate(1858.315 -675.544)" fill="#22a873"/>
        <path id="Контур_22371" data-name="Контур 22371" d="M-1821.732,696.641a7.028,7.028,0,0,1-2.7-2.79,8.385,8.385,0,0,1-.97-4.064,8.387,8.387,0,0,1,.97-4.065,7.033,7.033,0,0,1,2.7-2.79,7.664,7.664,0,0,1,3.912-1,7.662,7.662,0,0,1,3.913,1,7.141,7.141,0,0,1,2.715,2.79,8.292,8.292,0,0,1,.985,4.065,8.29,8.29,0,0,1-.985,4.064,7.135,7.135,0,0,1-2.715,2.79,7.667,7.667,0,0,1-3.913,1,7.669,7.669,0,0,1-3.912-1m7.052-2.7a4.5,4.5,0,0,0,.955-3.064,8.3,8.3,0,0,0-.591-3.154,5.618,5.618,0,0,0-1.668-2.321,3.8,3.8,0,0,0-2.442-.864,3.165,3.165,0,0,0-2.5,1.092,4.5,4.5,0,0,0-.956,3.064,8.3,8.3,0,0,0,.592,3.154,5.606,5.606,0,0,0,1.668,2.32,3.8,3.8,0,0,0,2.441.865,3.167,3.167,0,0,0,2.5-1.092" transform="translate(1840.215 -675.471)" fill="#22a873"/>
        <path id="Контур_22372" data-name="Контур 22372" d="M-1787.649,697.309a.67.67,0,0,1-.758-.758v-.485a.769.769,0,0,1,.637-.789l.546-.182a1.083,1.083,0,0,0,.637-.379,1.34,1.34,0,0,0,.182-.773v-7.189a1.613,1.613,0,0,0-.273-1.031,2.063,2.063,0,0,0-1.062-.546,1.018,1.018,0,0,1-.515-.258.719.719,0,0,1-.152-.5v-.424a.8.8,0,0,1,.637-.789l3.458-1.153a1.917,1.917,0,0,1,.545-.091q.729,0,.728.91v.546a.289.289,0,0,0,.152.288.318.318,0,0,0,.333-.045l.546-.3a8.616,8.616,0,0,1,4.55-1.425,3.672,3.672,0,0,1,2.911,1.137,4.737,4.737,0,0,1,1,3.23v7.644a1.34,1.34,0,0,0,.182.773,1.084,1.084,0,0,0,.637.379l.546.182a.769.769,0,0,1,.637.789v.485a.732.732,0,0,1-.212.562.774.774,0,0,1-.546.2h-4.064a.771.771,0,0,1-.546-.2.73.73,0,0,1-.212-.562v-9.645a3.185,3.185,0,0,0-.365-1.729,1.415,1.415,0,0,0-1.273-.546,6.623,6.623,0,0,0-1.85.273,7.7,7.7,0,0,0-1.638.668,1.368,1.368,0,0,0-.5.44,1.208,1.208,0,0,0-.136.621v7.31a1.344,1.344,0,0,0,.182.773,1.087,1.087,0,0,0,.637.379l.546.182a.769.769,0,0,1,.637.789v.485a.67.67,0,0,1-.758.758Z" transform="translate(1819.871 -675.471)" fill="#22a873"/>
        <path id="Контур_22373" data-name="Контур 22373" d="M-1745.106,696.641a7.03,7.03,0,0,1-2.7-2.79,8.386,8.386,0,0,1-.97-4.064,8.388,8.388,0,0,1,.97-4.065,7.035,7.035,0,0,1,2.7-2.79,7.665,7.665,0,0,1,3.913-1,7.663,7.663,0,0,1,3.913,1,7.14,7.14,0,0,1,2.714,2.79,8.289,8.289,0,0,1,.986,4.065,8.287,8.287,0,0,1-.986,4.064,7.134,7.134,0,0,1-2.714,2.79,7.669,7.669,0,0,1-3.913,1,7.671,7.671,0,0,1-3.913-1m7.052-2.7a4.5,4.5,0,0,0,.955-3.064,8.3,8.3,0,0,0-.592-3.154,5.617,5.617,0,0,0-1.668-2.321,3.8,3.8,0,0,0-2.442-.864,3.165,3.165,0,0,0-2.5,1.092,4.5,4.5,0,0,0-.956,3.064,8.306,8.306,0,0,0,.592,3.154,5.605,5.605,0,0,0,1.668,2.32,3.8,3.8,0,0,0,2.441.865,3.166,3.166,0,0,0,2.5-1.092" transform="translate(1798.076 -675.471)" fill="#22a873"/>
        <path id="Контур_22374" data-name="Контур 22374" d="M-1711.023,697.309a.67.67,0,0,1-.758-.758v-.485a.769.769,0,0,1,.637-.789l.546-.182a1.087,1.087,0,0,0,.637-.379,1.343,1.343,0,0,0,.182-.773v-7.189a1.615,1.615,0,0,0-.273-1.031,2.068,2.068,0,0,0-1.062-.546,1.022,1.022,0,0,1-.516-.258.72.72,0,0,1-.152-.5v-.424a.8.8,0,0,1,.637-.789l3.458-1.153a1.629,1.629,0,0,1,.516-.091.7.7,0,0,1,.561.228,1.019,1.019,0,0,1,.2.683v.546a.289.289,0,0,0,.152.288.318.318,0,0,0,.333-.045l.546-.3a8.176,8.176,0,0,1,4.216-1.425,4.06,4.06,0,0,1,1.866.409,4.046,4.046,0,0,1,1.41,1.229q.212.3.425.3a.276.276,0,0,0,.136-.046c.05-.03.1-.055.137-.076l.546-.364a7.928,7.928,0,0,1,4.367-1.456,3.56,3.56,0,0,1,2.806,1.107,4.569,4.569,0,0,1,.986,3.139v7.765a1.344,1.344,0,0,0,.182.773,1.108,1.108,0,0,0,.667.379l.515.182a.77.77,0,0,1,.637.789v.485a.763.763,0,0,1-.2.562.72.72,0,0,1-.531.2h-4.064a.67.67,0,0,1-.758-.758v-9.827a2.747,2.747,0,0,0-.364-1.576,1.347,1.347,0,0,0-1.182-.516,6.623,6.623,0,0,0-3.185.94,1.349,1.349,0,0,0-.47.455,1.224,1.224,0,0,0-.137.606v7.31a1.341,1.341,0,0,0,.182.773,1.085,1.085,0,0,0,.637.379l.545.182a.769.769,0,0,1,.637.789v.485a.67.67,0,0,1-.758.758h-4.064a.771.771,0,0,1-.546-.2.729.729,0,0,1-.212-.562v-9.827a2.838,2.838,0,0,0-.349-1.592,1.357,1.357,0,0,0-1.2-.5,5.122,5.122,0,0,0-1.592.273,8.467,8.467,0,0,0-1.532.668,1.37,1.37,0,0,0-.5.44,1.206,1.206,0,0,0-.136.621v7.31a1.342,1.342,0,0,0,.182.773,1.086,1.086,0,0,0,.637.379l.546.182a.769.769,0,0,1,.637.789v.485a.67.67,0,0,1-.758.758Z" transform="translate(1777.732 -675.471)" fill="#22a873"/>
        <path id="Контур_22375" data-name="Контур 22375" d="M-1650.965,689.414a.67.67,0,0,1-.759-.758v-.485a.769.769,0,0,1,.637-.788l.546-.182a1.085,1.085,0,0,0,.637-.379,1.345,1.345,0,0,0,.182-.773V678.92a1.614,1.614,0,0,0-.273-1.031,2.064,2.064,0,0,0-1.062-.546,1.02,1.02,0,0,1-.516-.258.718.718,0,0,1-.152-.5v-.424a.8.8,0,0,1,.637-.788l3.609-1.213a2.138,2.138,0,0,1,.546-.091q.728,0,.728.91v11.07a1.345,1.345,0,0,0,.182.773,1.086,1.086,0,0,0,.637.379l.546.182a.769.769,0,0,1,.637.788v.485a.67.67,0,0,1-.758.758Zm.91-18.092a2,2,0,0,1-.7-1.562,1.993,1.993,0,0,1,.7-1.578,2.629,2.629,0,0,1,1.789-.606,2.616,2.616,0,0,1,1.8.606,2.013,2.013,0,0,1,.682,1.578,2.01,2.01,0,0,1-.682,1.577,2.613,2.613,0,0,1-1.8.607,2.586,2.586,0,0,1-1.789-.622" transform="translate(1744.705 -667.577)" fill="#22a873"/>
        <path id="Контур_22376" data-name="Контур 22376" d="M-1628.945,696.714a6.715,6.715,0,0,1-2.669-2.775,8.688,8.688,0,0,1-.925-4.079,8.816,8.816,0,0,1,.91-4.08,6.658,6.658,0,0,1,2.533-2.745,7.044,7.044,0,0,1,3.685-.97,6.321,6.321,0,0,1,1.4.182,7.252,7.252,0,0,0,1.031.122,2.314,2.314,0,0,0,.758-.137,2.021,2.021,0,0,1,.577-.136.672.672,0,0,1,.44.136,1.405,1.405,0,0,1,.319.41l1.577,3.548a1.01,1.01,0,0,1,.091.394.665.665,0,0,1-.425.667l-.152.091a1.391,1.391,0,0,1-.425.121.836.836,0,0,1-.7-.364,13.884,13.884,0,0,0-2.335-2.214,3.716,3.716,0,0,0-2.154-.667,3.4,3.4,0,0,0-2.578,1.137,4.42,4.42,0,0,0-1.062,3.139,7.019,7.019,0,0,0,.7,3.184,5.179,5.179,0,0,0,1.926,2.154,5.229,5.229,0,0,0,2.806.758,4.306,4.306,0,0,0,3.032-1.031,1.37,1.37,0,0,1,.88-.455.613.613,0,0,1,.394.122.717.717,0,0,1,.364.667,1.738,1.738,0,0,1-.212.758,5.066,5.066,0,0,1-2.2,2.244,7.134,7.134,0,0,1-3.473.819,8.116,8.116,0,0,1-4.109-1" transform="translate(1734.155 -675.544)" fill="#22a873"/>
        <path id="Контур_22377" data-name="Контур 22377" d="M-1597.554,696.489a4.14,4.14,0,0,1-1.3-3.275,4.2,4.2,0,0,1,1.759-3.595,8.663,8.663,0,0,1,5.156-1.289q.242,0,1.88.091h.091a.268.268,0,0,0,.3-.3v-1.365q0-2.82-2.517-2.82a2.912,2.912,0,0,0-1.759.576,7.293,7.293,0,0,0-1.638,1.85,1.882,1.882,0,0,1-.424.455.858.858,0,0,1-.485.122.674.674,0,0,1-.47-.152,1.488,1.488,0,0,1-.319-.485l-.91-2a1.072,1.072,0,0,1-.122-.485q0-.394.516-.7a9.888,9.888,0,0,1,2.517-.849,14.675,14.675,0,0,1,3.094-.333q3.154,0,4.549,1.425a6.083,6.083,0,0,1,1.456,4.276l.091,6.7a1.008,1.008,0,0,0,.167.652.617.617,0,0,0,.5.2.8.8,0,0,0,.455-.122,2.96,2.96,0,0,0,.425-.364.9.9,0,0,1,.637-.394.609.609,0,0,1,.485.212.81.81,0,0,1,.182.546,2.26,2.26,0,0,1-.834,1.82,3.176,3.176,0,0,1-2.108.7,3.036,3.036,0,0,1-1.683-.424,4.007,4.007,0,0,1-1.2-1.335.292.292,0,0,0-.273-.182.5.5,0,0,0-.3.182,5.325,5.325,0,0,1-1.88,1.35,5.928,5.928,0,0,1-2.366.47,5.357,5.357,0,0,1-3.67-1.153m7.491-2.547a1.326,1.326,0,0,0,.334-.516,2.119,2.119,0,0,0,.091-.667v-1.971a.38.38,0,0,0-.394-.424,6.8,6.8,0,0,0-1.638-.152q-3.548,0-3.549,2.578a2.193,2.193,0,0,0,.652,1.713,2.634,2.634,0,0,0,1.835.592,3.535,3.535,0,0,0,2.669-1.153" transform="translate(1715.633 -675.471)" fill="#22a873"/>
      </g>
      <g id="Сгруппировать_5777" data-name="Сгруппировать 5777" transform="translate(0 0)">
        <path id="Контур_22378" data-name="Контур 22378" d="M-1921.184,646.2a4.686,4.686,0,0,0-3.923,2.009.5.5,0,0,0,.262.753c1.107.383,2.2.8,3.277,1.245a1,1,0,0,0,.768,0c1.075-.446,2.171-.862,3.277-1.245a.5.5,0,0,0,.261-.753,4.684,4.684,0,0,0-3.922-2.009" transform="translate(1938.088 -646.203)" fill="#22a873"/>
        <path id="Контур_22379" data-name="Контур 22379" d="M-1934.431,653.888a1.913,1.913,0,0,0-.555-.083,1.91,1.91,0,0,0-.916.235,1.821,1.821,0,0,0-.89,1.1c-.337,1.167-.619,2.358-.844,3.563a.507.507,0,0,0,.769.523q.9-.581,1.8-1.115c1.313-.779,2.656-1.506,4.016-2.177a.5.5,0,0,0-.039-.926q-1.214-.448-2.447-.841h0q-.447-.142-.9-.278" transform="translate(1944.937 -650.384)" fill="#22a873"/>
        <path id="Контур_22380" data-name="Контур 22380" d="M-1905.325,653.939a2.017,2.017,0,0,0-1.3-.023q-.416.125-.829.258-1.23.392-2.447.842a.5.5,0,0,0-.04.925c1.36.671,2.7,1.4,4.016,2.177q.9.533,1.8,1.115a.507.507,0,0,0,.768-.523c-.224-1.2-.506-2.4-.844-3.562a1.839,1.839,0,0,0-1.128-1.208" transform="translate(1929.858 -650.391)" fill="#22a873"/>
        <path id="Контур_22381" data-name="Контур 22381" d="M-1926.568,659.509a1.02,1.02,0,0,0-.834,0,57.458,57.458,0,0,0-5.825,3.019c-.76.45-1.525.929-2.287,1.433a.5.5,0,0,0,.129.9c.48.151.975.314,1.488.49a49.278,49.278,0,0,1,6.455,2.745,1,1,0,0,0,.914,0,49.251,49.251,0,0,1,6.455-2.745c.514-.176,1.009-.339,1.489-.49a.5.5,0,0,0,.129-.9q-1.144-.756-2.287-1.433a57.48,57.48,0,0,0-5.825-3.019" transform="translate(1943.888 -653.471)" fill="#22a873"/>
        <path id="Контур_22382" data-name="Контур 22382" d="M-1943.662,681.881l.363.124a1.01,1.01,0,0,0,.987-.183c.474-.4.969-.807,1.482-1.208a49.96,49.96,0,0,1,4.979-3.449.506.506,0,0,0-.036-.89,48.075,48.075,0,0,0-4.94-2.01c-1.308-.45-2.49-.81-3.615-1.1l-.618-.146a1.879,1.879,0,0,0-1.576.333,1.879,1.879,0,0,0-.749,1.431l-.023.685c-.009.26-.017.521-.017.783a37.755,37.755,0,0,0,.21,3.931,1.012,1.012,0,0,0,.761.868c.939.242,1.874.52,2.791.83" transform="translate(1950.315 -660.922)" fill="#22a873"/>
        <path id="Контур_22383" data-name="Контур 22383" d="M-1900.387,673.353a1.873,1.873,0,0,0-1.576-.332l-.617.146c-1.119.288-2.3.646-3.615,1.1a48.1,48.1,0,0,0-4.94,2.01.505.505,0,0,0-.036.889,50.128,50.128,0,0,1,4.979,3.449c.512.4,1.008.807,1.483,1.208a1.008,1.008,0,0,0,.986.183l.363-.124c.917-.31,1.851-.588,2.791-.83a1.014,1.014,0,0,0,.761-.868,37.667,37.667,0,0,0,.21-3.931c0-.259-.009-.516-.018-.773l-.022-.7a1.878,1.878,0,0,0-.75-1.431" transform="translate(1930.515 -660.922)" fill="#22a873"/>
        <path id="Контур_22384" data-name="Контур 22384" d="M-1924.644,683.59a1.015,1.015,0,0,0-1,0,48.065,48.065,0,0,0-5.962,4.008q-.3.238-.6.477a.506.506,0,0,0,.117.858q.423.186.835.381a39.539,39.539,0,0,1,5.536,3.179,1.006,1.006,0,0,0,1.145,0,39.544,39.544,0,0,1,5.535-3.179q.412-.194.836-.381a.506.506,0,0,0,.117-.858q-.294-.238-.6-.477a48.037,48.037,0,0,0-5.961-4.008" transform="translate(1942.049 -666.69)" fill="#22a873"/>
        <path id="Контур_22385" data-name="Контур 22385" d="M-1947.69,694.649a37.793,37.793,0,0,0-3.844-1.078,2.053,2.053,0,0,0-.444-.049,1.827,1.827,0,0,0-1.31.55,1.88,1.88,0,0,0-.515,1.743,37.706,37.706,0,0,0,1.7,5.572,37.829,37.829,0,0,0,4.118,7.725.506.506,0,0,0,.84-.021q.4-.621.828-1.224c.69-.98,1.426-1.932,2.188-2.83.8-.945,1.655-1.858,2.532-2.714.9-.875,1.836-1.71,2.807-2.493a.505.505,0,0,0-.03-.813,37.977,37.977,0,0,0-4.895-2.767c-.863-.407-1.766-.789-2.684-1.138-.428-.162-.86-.314-1.3-.461" transform="translate(1953.846 -672.225)" fill="#22a873"/>
        <path id="Контур_22386" data-name="Контур 22386" d="M-1921.847,714.71c-.771-.909-1.59-1.786-2.433-2.609a38.136,38.136,0,0,0-2.947-2.6,1,1,0,0,0-1.245,0,38.27,38.27,0,0,0-2.947,2.6c-.843.823-1.662,1.7-2.433,2.609-.733.862-1.44,1.777-2.1,2.719-.444.63-.873,1.281-1.279,1.94a.51.51,0,0,0,.064.619,12.977,12.977,0,0,0,9.32,3.931,12.981,12.981,0,0,0,9.321-3.931.511.511,0,0,0,.064-.62c-.407-.66-.835-1.31-1.28-1.94-.664-.942-1.371-1.857-2.1-2.719" transform="translate(1944.753 -680.896)" fill="#22a873"/>
        <path id="Контур_22387" data-name="Контур 22387" d="M-1903.525,694.649a37.744,37.744,0,0,1,3.844-1.078,2.047,2.047,0,0,1,.444-.049,1.826,1.826,0,0,1,1.31.55,1.879,1.879,0,0,1,.515,1.743,37.764,37.764,0,0,1-1.7,5.572,37.841,37.841,0,0,1-4.118,7.725.507.507,0,0,1-.841-.021q-.4-.621-.828-1.224c-.689-.98-1.426-1.932-2.188-2.83-.8-.945-1.655-1.858-2.532-2.714-.9-.875-1.836-1.71-2.807-2.493a.505.505,0,0,1,.03-.813,37.939,37.939,0,0,1,4.894-2.767c.863-.407,1.766-.789,2.684-1.138.427-.162.86-.314,1.3-.461" transform="translate(1931.175 -672.225)" fill="#22a873"/>
      </g>
    </g>
  </g>
</svg>
