<svg id="Сгруппировать_12404" data-name="Сгруппировать 12404" xmlns="http://www.w3.org/2000/svg" width="27.662" height="23.653" viewBox="0 0 27.662 23.653">
  <path id="Контур_26422" data-name="Контур 26422" d="M-7293.473,1481.506a.67.67,0,0,1-.314-.08.661.661,0,0,1-.344-.578v-6.673l-9.14-6.177a.656.656,0,0,1-.289-.563.66.66,0,0,1,.318-.548l4.244-2.56a.658.658,0,0,1,.689.007l9.768,6.13a.654.654,0,0,1,.308.557v6.871a.658.658,0,0,1-.3.553l-4.581,2.956A.675.675,0,0,1-7293.473,1481.506Zm-8.206-14.023,8.575,5.8a.66.66,0,0,1,.291.546v5.814l3.265-2.1v-6.15l-9.117-5.72Z" transform="translate(7309.594 -1460.601)" fill="#22a873"/>
  <path id="Контур_26423" data-name="Контур 26423" d="M-7298.1,1477.679a.659.659,0,0,1-.35-.1l-9.164-5.727a.66.66,0,0,1-.31-.56.658.658,0,0,1,.313-.557l6.772-4.192a.659.659,0,0,1,.906.214.658.658,0,0,1-.212.906l-5.873,3.634,7.915,4.948,5.949-3.769a.659.659,0,0,1,.909.2.658.658,0,0,1-.2.909l-6.3,3.989A.646.646,0,0,1-7298.1,1477.679Z" transform="translate(7307.92 -1459.754)" fill="#22a873"/>
  <path id="Контур_26424" data-name="Контур 26424" d="M-7298.1,1478.589a.647.647,0,0,1-.35-.1l-9.164-5.726a.659.659,0,0,1-.209-.909.66.66,0,0,1,.907-.209l8.813,5.508,5.949-3.768a.658.658,0,0,1,.909.2.658.658,0,0,1-.2.909l-6.3,3.99A.656.656,0,0,1-7298.1,1478.589Z" transform="translate(7307.92 -1457.799)" fill="#22a873"/>
  <path id="Контур_26425" data-name="Контур 26425" d="M-7298.1,1480.659a.658.658,0,0,1-.35-.1l-9.164-5.727a.657.657,0,0,1-.209-.907.659.659,0,0,1,.907-.21l8.813,5.507,5.949-3.768a.658.658,0,0,1,.909.2.658.658,0,0,1-.2.909l-6.3,3.99A.645.645,0,0,1-7298.1,1480.659Z" transform="translate(7307.92 -1457.006)" fill="#22a873"/>
  <path id="Контур_26426" data-name="Контур 26426" d="M-7290.271,1472.661a.657.657,0,0,1-.557-.306.658.658,0,0,1,.2-.909l5.448-3.451-7.922-4.95-5.912,3.8a.66.66,0,0,1-.911-.2.659.659,0,0,1,.2-.91l6.264-4.028a.66.66,0,0,1,.705,0l9.164,5.728a.658.658,0,0,1,.31.556.661.661,0,0,1-.305.559l-6.333,4.01A.647.647,0,0,1-7290.271,1472.661Z" transform="translate(7310.944 -1461.607)" fill="#22a873"/>
  <path id="Контур_26427" data-name="Контур 26427" d="M-7292.767,1473.124a.658.658,0,0,1-.557-.306.658.658,0,0,1,.2-.909l6.3-3.989a.657.657,0,0,1,.908.2.658.658,0,0,1-.2.909l-6.3,3.989A.653.653,0,0,1-7292.767,1473.124Z" transform="translate(7313.473 -1459.228)" fill="#22a873"/>
  <path id="Контур_26428" data-name="Контур 26428" d="M-7292.769,1475.2a.657.657,0,0,1-.556-.307.658.658,0,0,1,.2-.909l6.3-3.99a.658.658,0,0,1,.908.2.658.658,0,0,1-.2.909l-6.3,3.989A.65.65,0,0,1-7292.769,1475.2Z" transform="translate(7313.472 -1458.434)" fill="#22a873"/>
</svg>
