<svg xmlns="http://www.w3.org/2000/svg" width="20.882" height="18.155" viewBox="0 0 20.882 18.155">
  <g id="Сгруппировать_12643" data-name="Сгруппировать 12643" transform="translate(1 1)">
    <path id="Контур_12211" data-name="Контур 12211" d="M2901.765,3923.082v5.58a2.086,2.086,0,0,1-2.1,2.071h-13.784a2.086,2.086,0,0,1-2.1-2.071v-5.58" transform="translate(-2883.332 -3914.578)" fill="none" stroke="#22a873" stroke-miterlimit="10" stroke-width="2"/>
    <rect id="Прямоугольник_347" data-name="Прямоугольник 347" width="3.333" height="2.7" transform="translate(7.775 8.425)" fill="none" stroke="#22a873" stroke-miterlimit="10" stroke-width="2"/>
    <path id="Контур_12212" data-name="Контур 12212" d="M2895.373,3915.793v-1.432c0-.3-.4-.54-.9-.54h-4.051c-.5,0-.9.241-.9.54v1.432" transform="translate(-2883.006 -3913.821)" fill="none" stroke="#22a873" stroke-miterlimit="10" stroke-width="2"/>
    <path id="Контур_12213" data-name="Контур 12213" d="M2891.23,3924.2h-5.146c-1.523,0-2.737-.815-2.737-2.25v-2.88a2.084,2.084,0,0,1,2.1-2.07h14.687a2.084,2.084,0,0,1,2.1,2.07v2.88c0,1.435-1.214,2.25-2.737,2.25h-5.384" transform="translate(-2883.348 -3914.947)" fill="none" stroke="#22a873" stroke-miterlimit="10" stroke-width="2"/>
  </g>
</svg>
