<svg xmlns="http://www.w3.org/2000/svg" xmlns:xlink="http://www.w3.org/1999/xlink" width="1416" height="96" viewBox="0 0 1416 96">
  <defs>
    <clipPath id="clip-path">
      <rect id="PAD" width="1416" height="96" rx="20" transform="translate(252 177)" fill="#bfffd2"/>
    </clipPath>
  </defs>
  <g id="Сгруппировать_13074" data-name="Сгруппировать 13074" transform="translate(-252 -168)">
    <g id="Группа_масок_11" data-name="Группа масок 11" transform="translate(0 -9)" clip-path="url(#clip-path)">
      <path id="Контур_26449" data-name="Контур 26449" d="M111.789,0A111.789,111.789,0,1,1,0,111.789,111.789,111.789,0,0,1,111.789,0Z" transform="translate(233.84 113.212)" fill="#fff"/>
    </g>
    <g id="Сгруппировать_11606" data-name="Сгруппировать 11606" transform="translate(283.047 184.475)">
      <path id="Контур_26422" data-name="Контур 26422" d="M-7276.672,1510.278a1.79,1.79,0,0,1-.838-.214,1.763,1.763,0,0,1-.917-1.541v-17.789l-24.362-16.466a1.751,1.751,0,0,1-.771-1.5,1.759,1.759,0,0,1,.849-1.46l11.313-6.824a1.755,1.755,0,0,1,1.839.018l26.036,16.341a1.745,1.745,0,0,1,.821,1.485v18.317a1.752,1.752,0,0,1-.8,1.475l-12.211,7.879A1.8,1.8,0,0,1-7276.672,1510.278Zm-21.874-37.381,22.858,15.448a1.759,1.759,0,0,1,.775,1.457v15.5l8.7-5.611V1483.3l-24.3-15.249Z" transform="translate(7319.646 -1454.553)" fill="#bfffd2"/>
      <path id="Контур_26423" data-name="Контур 26423" d="M-7281.736,1496.393a1.76,1.76,0,0,1-.933-.265l-24.426-15.268a1.757,1.757,0,0,1-.825-1.493,1.752,1.752,0,0,1,.833-1.486l18.051-11.175a1.756,1.756,0,0,1,2.417.572,1.753,1.753,0,0,1-.566,2.415l-15.655,9.686,21.1,13.188,15.858-10.047a1.756,1.756,0,0,1,2.423.546,1.755,1.755,0,0,1-.543,2.422l-16.8,10.634A1.715,1.715,0,0,1-7281.736,1496.393Z" transform="translate(7307.92 -1448.609)" fill="#bfffd2"/>
      <path id="Контур_26424" data-name="Контур 26424" d="M-7281.737,1490.323a1.726,1.726,0,0,1-.933-.269l-24.427-15.264a1.76,1.76,0,0,1-.558-2.423,1.761,1.761,0,0,1,2.419-.557l23.492,14.682,15.859-10.043a1.754,1.754,0,0,1,2.422.542,1.755,1.755,0,0,1-.543,2.422l-16.8,10.637A1.743,1.743,0,0,1-7281.737,1490.323Z" transform="translate(7307.921 -1434.904)" fill="#bfffd2"/>
      <path id="Контур_26425" data-name="Контур 26425" d="M-7281.737,1492.393a1.755,1.755,0,0,1-.933-.266l-24.427-15.267a1.754,1.754,0,0,1-.558-2.419,1.757,1.757,0,0,1,2.419-.56l23.492,14.681,15.859-10.043a1.754,1.754,0,0,1,2.422.542,1.753,1.753,0,0,1-.543,2.422l-16.8,10.637A1.716,1.716,0,0,1-7281.737,1492.393Z" transform="translate(7307.921 -1429.342)" fill="#bfffd2"/>
      <path id="Контур_26426" data-name="Контур 26426" d="M-7274.02,1491.074a1.749,1.749,0,0,1-1.484-.815,1.754,1.754,0,0,1,.54-2.423l14.522-9.2-21.118-13.2-15.76,10.132a1.76,1.76,0,0,1-2.429-.527,1.757,1.757,0,0,1,.529-2.426l16.7-10.736a1.758,1.758,0,0,1,1.879-.011l24.427,15.268a1.757,1.757,0,0,1,.825,1.482,1.763,1.763,0,0,1-.813,1.489l-16.881,10.689A1.716,1.716,0,0,1-7274.02,1491.074Z" transform="translate(7329.126 -1461.607)" fill="#bfffd2"/>
      <path id="Контур_26427" data-name="Контур 26427" d="M-7291.669,1481.962a1.753,1.753,0,0,1-1.484-.815,1.754,1.754,0,0,1,.543-2.422l16.791-10.633a1.751,1.751,0,0,1,2.42.542,1.753,1.753,0,0,1-.541,2.423l-16.79,10.633A1.745,1.745,0,0,1-7291.669,1481.962Z" transform="translate(7346.863 -1444.919)" fill="#bfffd2"/>
      <path id="Контур_26428" data-name="Контур 26428" d="M-7291.672,1484.037a1.751,1.751,0,0,1-1.481-.818,1.753,1.753,0,0,1,.54-2.422l16.8-10.637a1.754,1.754,0,0,1,2.419.546,1.754,1.754,0,0,1-.54,2.422l-16.793,10.633A1.738,1.738,0,0,1-7291.672,1484.037Z" transform="translate(7346.86 -1439.354)" fill="#bfffd2"/>
    </g>
  </g>
</svg>
