<svg xmlns="http://www.w3.org/2000/svg" xmlns:xlink="http://www.w3.org/1999/xlink" width="1416" height="96" viewBox="0 0 1416 96">
  <defs>
    <clipPath id="clip-path">
      <rect id="PAD" width="1416" height="96" rx="20" transform="translate(252 177)" fill="#bfffd2"/>
    </clipPath>
  </defs>
  <g id="Сгруппировать_13073" data-name="Сгруппировать 13073" transform="translate(-252 -170)">
    <g id="Группа_масок_11" data-name="Группа масок 11" transform="translate(0 -7)" clip-path="url(#clip-path)">
      <path id="Контур_26449" data-name="Контур 26449" d="M111.789,0A111.789,111.789,0,1,1,0,111.789,111.789,111.789,0,0,1,111.789,0Z" transform="translate(200.84 113.212)" fill="#fff"/>
    </g>
    <g id="Сгруппировать_12807" data-name="Сгруппировать 12807" transform="translate(271.227 177.297)">
      <path id="Многоугольник_3" data-name="Многоугольник 3" d="M25.756,3.108a2,2,0,0,1,3.488,0L53.328,46.021A2,2,0,0,1,51.584,49H3.416a2,2,0,0,1-1.744-2.979Z" transform="translate(14.773 13.703)" fill="#fee8e8"/>
      <text id="_" data-name="!" transform="translate(36.773 55.703)" fill="#fff" font-size="32" font-family="SegoeUI-Bold, Segoe UI" font-weight="700"><tspan x="0" y="0">!</tspan></text>
      <g id="Многоугольник_4" data-name="Многоугольник 4" transform="translate(-0.227 -0.297)" fill="none">
        <path d="M35.636,11.467a8,8,0,0,1,13.728,0L77.752,58.891A8,8,0,0,1,70.888,71H14.112A8,8,0,0,1,7.248,58.891Z" stroke="none"/>
        <path d="M 42.49999618530273 10.57611846923828 C 40.72519683837891 10.57611846923828 39.12141036987305 11.48526000976562 38.20986938476562 13.00808715820312 L 9.822334289550781 60.43196868896484 C 8.885459899902344 61.99709701538086 8.863182067871094 63.87888336181641 9.762733459472656 65.46574401855469 C 10.66228485107422 67.0526123046875 12.28836059570312 68 14.11245727539062 68 L 70.88753509521484 68 C 72.71163177490234 68 74.33769226074219 67.0526123046875 75.23725891113281 65.46574401855469 C 76.13681030273438 63.87888336181641 76.11453247070312 61.99709701538086 75.17767333984375 60.43196868896484 L 46.79012298583984 13.00807189941406 C 45.87858200073242 11.48526000976562 44.27479553222656 10.57611846923828 42.49999618530273 10.57611846923828 M 42.49999618530273 7.576118469238281 C 45.15569686889648 7.576118469238281 47.81139755249023 8.8731689453125 49.36419677734375 11.46726226806641 L 77.75174713134766 58.89114379882812 C 80.94361877441406 64.22348022460938 77.10218048095703 71 70.88753509521484 71 L 14.11245727539062 71 C 7.897811889648438 71 4.056358337402344 64.22348022460938 7.248260498046875 58.89114379882812 L 35.63579559326172 11.46726226806641 C 37.18859481811523 8.8731689453125 39.84429550170898 7.576118469238281 42.49999618530273 7.576118469238281 Z" stroke="none" fill="#fee8e8"/>
      </g>
    </g>
  </g>
</svg>
