<svg xmlns="http://www.w3.org/2000/svg" width="21" height="20" viewBox="0 0 21 20">
  <g id="Сгруппировать_13057" data-name="Сгруппировать 13057" transform="translate(-1526 -39.999)">
    <path id="_2222" data-name="2222" d="M62.459,161.974h-.329c-.1-.042-.2-.081-.3-.127q-1.749-.833-3.5-1.668l-5.988-2.854a.9.9,0,0,1-.5-.467.765.765,0,0,1,.436-1c1.036-.5,2.075-.99,3.113-1.486.062-.03.123-.065.205-.11-.1-.05-.164-.084-.233-.116L52.33,152.7a.875.875,0,0,1-.488-.475.771.771,0,0,1,.456-.99q1.546-.741,3.095-1.476c.063-.03.123-.064.212-.11l-.231-.118-3.041-1.448a.86.86,0,0,1-.493-.49.78.78,0,0,1,.493-.991q4.7-2.24,9.392-4.485a1.2,1.2,0,0,1,1.14,0c2.338,1.128,4.685,2.24,7.03,3.357q1.192.567,2.381,1.137a.744.744,0,0,1,.474.506.772.772,0,0,1-.522.983l-3.021,1.439c-.065.031-.126.067-.213.113.088.046.151.082.216.113l3.041,1.45a.754.754,0,0,1,.514.684.775.775,0,0,1-.51.806c-1.022.481-2.04.97-3.059,1.457-.062.03-.123.065-.205.11.1.05.164.083.232.115,1.007.481,2.014.958,3.019,1.444a1.174,1.174,0,0,1,.374.263.781.781,0,0,1-.336,1.211q-2.342,1.123-4.687,2.237Q65.027,160.761,62.459,161.974Zm-8-14.634c.08.042.12.065.162.085l7.525,3.592A.334.334,0,0,0,62.47,151q3.726-1.78,7.452-3.556c.058-.028.113-.061.193-.1-.068-.037-.112-.063-.159-.085q-3.753-1.791-7.506-3.586a.346.346,0,0,0-.341.018q-3.138,1.5-6.28,2.995Zm0,4.614c.082.044.127.07.174.092l7.5,3.583a.335.335,0,0,0,.323,0q3.74-1.79,7.486-3.576c.051-.024.1-.055.167-.094-.082-.044-.142-.076-.2-.1-.866-.413-1.735-.823-2.6-1.243a.367.367,0,0,0-.36,0c-1.383.664-2.773,1.317-4.153,1.987a1.083,1.083,0,0,1-1.027-.005c-1.374-.666-2.756-1.32-4.138-1.973a.385.385,0,0,0-.278-.036C56.4,151.026,55.451,151.482,54.46,151.954Zm15.67,4.625c-.1-.051-.156-.083-.215-.112-.866-.413-1.735-.823-2.6-1.242a.367.367,0,0,0-.36,0c-1.389.666-2.785,1.324-4.172,1.995a1.052,1.052,0,0,1-.992,0c-1.375-.666-2.758-1.317-4.135-1.979a.4.4,0,0,0-.4,0c-.861.423-1.732.829-2.6,1.242-.058.027-.113.061-.191.1.076.039.126.07.179.1l7.468,3.564a.37.37,0,0,0,.36,0q2.972-1.424,5.949-2.839l1.7-.813Z" transform="translate(1474.21 -101.975)" fill="#2b2b2b"/>
  </g>
</svg>
