<svg xmlns="http://www.w3.org/2000/svg" width="20.281" height="13.999" viewBox="0 0 20.281 13.999">
  <g id="Сгруппировать_13057" data-name="Сгруппировать 13057" transform="translate(-0.001 -0.001)">
    <path id="Объединение_3" data-name="Объединение 3" d="M3,13.67Q1.654,12.223.322,10.77a1.077,1.077,0,0,1,0-1.535Q1.655,7.778,3,6.334A.878.878,0,0,1,4.344,6.3,1.063,1.063,0,0,1,4.3,7.758c-.32.35-.645.7-.965,1.041-.051.053-.092.109-.176.207H13.719a.945.945,0,0,1,1.023.877,1.051,1.051,0,0,1-.191.736.9.9,0,0,1-.615.369c-.1.01-.2.01-.3.01H3.156c.082.1.125.15.172.205.328.352.658.7.98,1.057a1.06,1.06,0,0,1,.035,1.445A.866.866,0,0,1,3.7,14,.961.961,0,0,1,3,13.67ZM15.938,7.707a1.063,1.063,0,0,1,.051-1.461c.316-.354.641-.7.967-1.041.045-.053.09-.109.172-.207H6.563a.944.944,0,0,1-1.023-.877,1.052,1.052,0,0,1,.189-.736.905.905,0,0,1,.615-.369c.1-.01.2-.008.3-.008H17.121c-.072-.09-.109-.143-.152-.187-.326-.354-.656-.7-.98-1.059A1.065,1.065,0,0,1,15.938.3a.879.879,0,0,1,1.35.033q1.345,1.456,2.689,2.918a1.08,1.08,0,0,1,0,1.5q-1.342,1.462-2.689,2.916a.972.972,0,0,1-.705.334A.862.862,0,0,1,15.938,7.707Z" fill="#2b2b2b"/>
  </g>
</svg>
