<svg xmlns="http://www.w3.org/2000/svg" width="22" height="19.111" viewBox="0 0 22 19.111">
  <g id="Сгруппировать_13142" data-name="Сгруппировать 13142" transform="translate(1 1)">
    <path id="Контур_12211" data-name="Контур 12211" d="M2902.829,3923.082v5.911a2.209,2.209,0,0,1-2.223,2.193h-14.6a2.21,2.21,0,0,1-2.224-2.193v-5.911" transform="translate(-2883.305 -3914.074)" fill="none" stroke="#2b2b2b" stroke-miterlimit="10" stroke-width="2"/>
    <rect id="Прямоугольник_347" data-name="Прямоугольник 347" width="3.53" height="2.86" transform="translate(8.235 8.923)" fill="none" stroke="#2b2b2b" stroke-miterlimit="10" stroke-width="2"/>
    <path id="Контур_12212" data-name="Контур 12212" d="M2895.719,3915.91v-1.517c0-.316-.427-.571-.954-.571h-4.291c-.526,0-.953.255-.953.571v1.517" transform="translate(-2882.62 -3913.821)" fill="none" stroke="#2b2b2b" stroke-miterlimit="10" stroke-width="2"/>
    <path id="Контур_12213" data-name="Контур 12213" d="M2891.7,3924.621h-5.45c-1.614,0-2.9-.864-2.9-2.383v-3.05a2.207,2.207,0,0,1,2.222-2.193h15.556a2.207,2.207,0,0,1,2.222,2.193v3.05c0,1.52-1.286,2.383-2.9,2.383h-5.7" transform="translate(-2883.348 -3914.826)" fill="none" stroke="#2b2b2b" stroke-miterlimit="10" stroke-width="2"/>
  </g>
</svg>
