<?xml version="1.0" encoding="utf-8"?>
<!-- Generator: Adobe Illustrator 23.0.3, SVG Export Plug-In . SVG Version: 6.00 Build 0)  -->
<svg version="1.1" id="Layer_1" xmlns="http://www.w3.org/2000/svg" xmlns:xlink="http://www.w3.org/1999/xlink" x="0px" y="0px"
	 viewBox="0 0 24 14.1" style="enable-background:new 0 0 24 14.1;" xml:space="preserve">
<style type="text/css">
	.st0{fill:#22a873;}
</style>
<g id="Group_12818" transform="translate(-4467.402 -3499.997)">
	<path id="Path_26774" class="st0" d="M4491,3506.6c-0.2-0.3-5.2-6.5-11.5-6.6h-0.2c-6.3,0.1-11.3,6.3-11.5,6.6l-0.4,0.5l0.4,0.5
		c0.2,0.3,5.2,6.5,11.5,6.6h0.2c6.3-0.1,11.3-6.3,11.5-6.6l0.4-0.5L4491,3506.6z M4484.9,3507.1c0,3-2.4,5.4-5.4,5.5h-0.1
		c-3,0-5.5-2.4-5.5-5.5c0-3,2.5-5.5,5.5-5.5h0.1C4482.5,3501.6,4484.9,3504.1,4484.9,3507.1L4484.9,3507.1z M4469.5,3507.1
		c1.1-1.2,2.3-2.3,3.7-3.2c-1.1,2-1.1,4.5,0,6.5C4471.8,3509.4,4470.6,3508.3,4469.5,3507.1L4469.5,3507.1z M4489.4,3507.1
		c-1.1,1.2-2.3,2.3-3.7,3.2c1.1-2,1.1-4.5,0-6.5C4487.1,3504.7,4488.3,3505.8,4489.4,3507.1L4489.4,3507.1z"/>
	<path id="Path_26775" class="st0" d="M4478.4,3503.8c0.9,0.4,1.3,1.4,0.9,2.2c-0.4,0.9-1.4,1.3-2.2,0.9c-0.4-0.2-0.7-0.5-0.9-0.9
		c-0.5,1.8,0.5,3.7,2.3,4.2c1.8,0.5,3.7-0.5,4.2-2.3s-0.5-3.7-2.3-4.2C4479.7,3503.6,4479,3503.6,4478.4,3503.8z"/>
</g>
</svg>
