<svg xmlns="http://www.w3.org/2000/svg" width="24" height="14.125" viewBox="0 0 24 14.125">
  <g id="Сгруппировать_12296" data-name="Сгруппировать 12296" transform="translate(-4467.402 -3499.997)">
    <path id="Контур_26774" data-name="Контур 26774" d="M4491.016,3506.568c-.209-.267-5.179-6.5-11.513-6.571h-.2c-6.334.066-11.3,6.3-11.513,6.571l-.385.491.385.491c.209.267,5.179,6.5,11.513,6.57h.2c6.334-.066,11.3-6.3,11.513-6.57l.386-.491Zm-6.143.491a5.479,5.479,0,0,1-5.4,5.472h-.146a5.472,5.472,0,0,1,0-10.944h.146A5.479,5.479,0,0,1,4484.874,3507.059Zm-15.416,0a21.191,21.191,0,0,1,3.672-3.245,7.053,7.053,0,0,0,0,6.489A21.155,21.155,0,0,1,4469.458,3507.059Zm16.216,3.244a7.057,7.057,0,0,0,0-6.489,3.269,3.269,0,1,1,0,6.489Z" fill="#22a873"/>
    <path id="Контур_26775" data-name="Контур 26775" d="M4484.4,3506.41a1.691,1.691,0,1,1-2.211,2.239,3.382,3.382,0,1,0,2.211-2.239Z" transform="translate(-6.026 -2.573)" fill="#22a873"/>
  </g>
</svg>
