<svg id="Сгруппировать_12807" data-name="Сгруппировать 12807" xmlns="http://www.w3.org/2000/svg" width="76" height="63" viewBox="0 0 76 63">
  <path id="Многоугольник_3" data-name="Многоугольник 3" d="M23.271,2.974a2,2,0,0,1,3.458,0L48.253,39.995A2,2,0,0,1,46.524,43H3.476a2,2,0,0,1-1.729-3.005Z" transform="translate(13 13)" fill="#fff"/>
  <text id="_" data-name="!" transform="translate(34 49)" fill="#fee8e8" font-size="27" font-family="SegoeUI-Bold, Segoe UI" font-weight="700"><tspan x="0" y="0">!</tspan></text>
  <g id="Многоугольник_4" data-name="Многоугольник 4" fill="none">
    <path d="M31.15,11.357a8,8,0,0,1,13.7,0L68.682,50.868A8,8,0,0,1,61.832,63H14.168a8,8,0,0,1-6.85-12.132Z" stroke="none"/>
    <path d="M 37.99999618530273 10.48907089233398 C 37.15484237670898 10.48907089233398 36.3238639831543 10.69772720336914 35.59689712524414 11.09247207641602 C 34.82317352294922 11.51261520385742 34.19120788574219 12.12297058105469 33.71854019165039 12.9066047668457 L 9.886550903320312 52.41752624511719 C 8.942588806152344 53.98251724243164 8.915519714355469 55.86696243286133 9.81414794921875 57.45841598510742 C 10.71277618408203 59.04987335205078 12.34038543701172 59.99999237060547 14.16801834106445 59.99999237060547 L 61.83199691772461 59.99999237060547 C 63.65937423706055 59.99999237060547 65.28688812255859 59.0498046875 66.18557739257812 57.45822906494141 C 67.08424377441406 55.86668395996094 67.05727386474609 53.98230743408203 66.11344146728516 52.41752624511719 L 42.28145217895508 12.9066047668457 C 41.80878448486328 12.12297058105469 41.17681884765625 11.51261520385742 40.40309524536133 11.09247207641602 C 39.67612838745117 10.69772720336914 38.84514999389648 10.48907089233398 37.99999618530273 10.48907089233398 M 37.99999618530273 7.489070892333984 C 40.64745712280273 7.489070892333984 43.29491806030273 8.778423309326172 44.8503303527832 11.35712814331055 L 68.68231964111328 50.86804962158203 C 71.89815521240234 56.19958114624023 68.05801391601562 62.99999237060547 61.83200073242188 62.99999237060547 C 61.83161926269531 62.99999237060547 61.83236694335938 62.99999237060547 61.83198547363281 62.99999237060547 L 14.16801834106445 62.99999237060547 C 7.941329956054688 63.00000762939453 4.101638793945312 56.19990539550781 7.317672729492188 50.86804962158203 L 31.14966201782227 11.35712814331055 C 32.70507431030273 8.778423309326172 35.35253524780273 7.489070892333984 37.99999618530273 7.489070892333984 Z" stroke="none" fill="#fff"/>
  </g>
</svg>
